%TF.GenerationSoftware,KiCad,Pcbnew,7.0.10*%
%TF.CreationDate,2024-04-20T21:53:22+01:00*%
%TF.ProjectId,Nano_switch_circuitry,4e616e6f-5f73-4776-9974-63685f636972,rev?*%
%TF.SameCoordinates,Original*%
%TF.FileFunction,Copper,L1,Top*%
%TF.FilePolarity,Positive*%
%FSLAX46Y46*%
G04 Gerber Fmt 4.6, Leading zero omitted, Abs format (unit mm)*
G04 Created by KiCad (PCBNEW 7.0.10) date 2024-04-20 21:53:22*
%MOMM*%
%LPD*%
G01*
G04 APERTURE LIST*
G04 Aperture macros list*
%AMRoundRect*
0 Rectangle with rounded corners*
0 $1 Rounding radius*
0 $2 $3 $4 $5 $6 $7 $8 $9 X,Y pos of 4 corners*
0 Add a 4 corners polygon primitive as box body*
4,1,4,$2,$3,$4,$5,$6,$7,$8,$9,$2,$3,0*
0 Add four circle primitives for the rounded corners*
1,1,$1+$1,$2,$3*
1,1,$1+$1,$4,$5*
1,1,$1+$1,$6,$7*
1,1,$1+$1,$8,$9*
0 Add four rect primitives between the rounded corners*
20,1,$1+$1,$2,$3,$4,$5,0*
20,1,$1+$1,$4,$5,$6,$7,0*
20,1,$1+$1,$6,$7,$8,$9,0*
20,1,$1+$1,$8,$9,$2,$3,0*%
G04 Aperture macros list end*
%TA.AperFunction,SMDPad,CuDef*%
%ADD10RoundRect,0.250000X-0.350000X-0.650000X0.350000X-0.650000X0.350000X0.650000X-0.350000X0.650000X0*%
%TD*%
%TA.AperFunction,SMDPad,CuDef*%
%ADD11RoundRect,0.150000X-0.150000X-0.625000X0.150000X-0.625000X0.150000X0.625000X-0.150000X0.625000X0*%
%TD*%
%TA.AperFunction,WasherPad*%
%ADD12C,1.000000*%
%TD*%
%TA.AperFunction,SMDPad,CuDef*%
%ADD13RoundRect,0.275000X-0.275000X-0.275000X0.275000X-0.275000X0.275000X0.275000X-0.275000X0.275000X0*%
%TD*%
%TA.AperFunction,SMDPad,CuDef*%
%ADD14RoundRect,0.237500X-0.312500X-0.237500X0.312500X-0.237500X0.312500X0.237500X-0.312500X0.237500X0*%
%TD*%
%TA.AperFunction,SMDPad,CuDef*%
%ADD15RoundRect,0.135000X0.185000X-0.135000X0.185000X0.135000X-0.185000X0.135000X-0.185000X-0.135000X0*%
%TD*%
%TA.AperFunction,SMDPad,CuDef*%
%ADD16RoundRect,0.135000X-0.185000X0.135000X-0.185000X-0.135000X0.185000X-0.135000X0.185000X0.135000X0*%
%TD*%
%TA.AperFunction,ViaPad*%
%ADD17C,0.600000*%
%TD*%
%TA.AperFunction,ViaPad*%
%ADD18C,3.000000*%
%TD*%
%TA.AperFunction,Conductor*%
%ADD19C,0.300000*%
%TD*%
G04 APERTURE END LIST*
D10*
%TO.P,J1,MP,MountPin*%
%TO.N,GND*%
X122700000Y-117100000D03*
X127300000Y-117100000D03*
D11*
%TO.P,J1,3,Pin_3*%
%TO.N,/5V*%
X126000000Y-113225000D03*
%TO.P,J1,2,Pin_2*%
%TO.N,GND*%
X125000000Y-113225000D03*
%TO.P,J1,1,Pin_1*%
%TO.N,/SNS*%
X124000000Y-113225000D03*
%TD*%
D12*
%TO.P,SW1,*%
%TO.N,*%
X124400000Y-108750000D03*
X124400000Y-110750000D03*
D13*
%TO.P,SW1,1,COM*%
%TO.N,/SNS*%
X122750000Y-109900000D03*
D14*
%TO.P,SW1,2,N.C*%
%TO.N,/SW_IN*%
X126050000Y-109975000D03*
%TD*%
D15*
%TO.P,R2,1*%
%TO.N,/SNS*%
X121500000Y-111360000D03*
%TO.P,R2,2*%
%TO.N,GND*%
X121500000Y-110340000D03*
%TD*%
%TO.P,R1,1*%
%TO.N,/5V*%
X127350000Y-111370000D03*
%TO.P,R1,2*%
%TO.N,/SW_IN*%
X127350000Y-110350000D03*
%TD*%
D16*
%TO.P,C1,1*%
%TO.N,/SW_IN*%
X128375000Y-110340000D03*
%TO.P,C1,2*%
%TO.N,GND*%
X128375000Y-111360000D03*
%TD*%
D17*
%TO.N,GND*%
X125000000Y-115000000D03*
X120500000Y-110000000D03*
X120500000Y-108500000D03*
X120500000Y-117500000D03*
X129500000Y-117500000D03*
X129500000Y-108500000D03*
X123650000Y-111875000D03*
D18*
X129250000Y-113500000D03*
X120750000Y-113500000D03*
D17*
X127625000Y-109125000D03*
X127225000Y-112500000D03*
X127225000Y-114500000D03*
X125000000Y-117000000D03*
X122725000Y-114500000D03*
X125875000Y-111375000D03*
X122625000Y-108375000D03*
X126125000Y-108375000D03*
%TD*%
D19*
%TO.N,/SW_IN*%
X127360000Y-110340000D02*
X127350000Y-110350000D01*
X128375000Y-110340000D02*
X127360000Y-110340000D01*
X126975000Y-109975000D02*
X127350000Y-110350000D01*
X126050000Y-109975000D02*
X126975000Y-109975000D01*
%TO.N,/SNS*%
X123225000Y-113225000D02*
X122750000Y-112750000D01*
X122750000Y-112750000D02*
X121500000Y-111500000D01*
X122750000Y-109900000D02*
X122750000Y-112750000D01*
X121500000Y-111500000D02*
X121500000Y-111360000D01*
X124000000Y-113225000D02*
X123225000Y-113225000D01*
%TO.N,/5V*%
X126000000Y-112720000D02*
X127350000Y-111370000D01*
X126000000Y-113225000D02*
X126000000Y-112720000D01*
%TD*%
%TA.AperFunction,Conductor*%
%TO.N,GND*%
G36*
X124158493Y-107774185D02*
G01*
X124204248Y-107826989D01*
X124214192Y-107896147D01*
X124185167Y-107959703D01*
X124132409Y-107995541D01*
X124050480Y-108024209D01*
X123897737Y-108120184D01*
X123770184Y-108247737D01*
X123674211Y-108400476D01*
X123614631Y-108570745D01*
X123614630Y-108570750D01*
X123594435Y-108749996D01*
X123594435Y-108750003D01*
X123614630Y-108929249D01*
X123614631Y-108929254D01*
X123674211Y-109099523D01*
X123737031Y-109199500D01*
X123770184Y-109252262D01*
X123897738Y-109379816D01*
X123988080Y-109436582D01*
X124048846Y-109474764D01*
X124050478Y-109475789D01*
X124189686Y-109524500D01*
X124220745Y-109535368D01*
X124220750Y-109535369D01*
X124399996Y-109555565D01*
X124400000Y-109555565D01*
X124400004Y-109555565D01*
X124579249Y-109535369D01*
X124579252Y-109535368D01*
X124579255Y-109535368D01*
X124749522Y-109475789D01*
X124902262Y-109379816D01*
X125029816Y-109252262D01*
X125125789Y-109099522D01*
X125185368Y-108929255D01*
X125205565Y-108750000D01*
X125185368Y-108570745D01*
X125125789Y-108400478D01*
X125029816Y-108247738D01*
X124902262Y-108120184D01*
X124749522Y-108024211D01*
X124749519Y-108024209D01*
X124667591Y-107995541D01*
X124610815Y-107954820D01*
X124585068Y-107889867D01*
X124598524Y-107821305D01*
X124646912Y-107770903D01*
X124708546Y-107754500D01*
X130721500Y-107754500D01*
X130788539Y-107774185D01*
X130834294Y-107826989D01*
X130845500Y-107878500D01*
X130845500Y-118621500D01*
X130825815Y-118688539D01*
X130773011Y-118734294D01*
X130721500Y-118745500D01*
X119278500Y-118745500D01*
X119211461Y-118725815D01*
X119165706Y-118673011D01*
X119154500Y-118621500D01*
X119154500Y-117250000D01*
X121800000Y-117250000D01*
X121800000Y-117793053D01*
X121810613Y-117881443D01*
X121866079Y-118022095D01*
X121957435Y-118142564D01*
X122077904Y-118233920D01*
X122218556Y-118289386D01*
X122306946Y-118300000D01*
X122550000Y-118300000D01*
X122550000Y-117250000D01*
X122850000Y-117250000D01*
X122850000Y-118300000D01*
X123093054Y-118300000D01*
X123181443Y-118289386D01*
X123322095Y-118233920D01*
X123442564Y-118142564D01*
X123533920Y-118022095D01*
X123589386Y-117881443D01*
X123600000Y-117793053D01*
X123600000Y-117250000D01*
X126400000Y-117250000D01*
X126400000Y-117793053D01*
X126410613Y-117881443D01*
X126466079Y-118022095D01*
X126557435Y-118142564D01*
X126677904Y-118233920D01*
X126818556Y-118289386D01*
X126906946Y-118300000D01*
X127150000Y-118300000D01*
X127150000Y-117250000D01*
X127450000Y-117250000D01*
X127450000Y-118300000D01*
X127693054Y-118300000D01*
X127781443Y-118289386D01*
X127922095Y-118233920D01*
X128042564Y-118142564D01*
X128133920Y-118022095D01*
X128189386Y-117881443D01*
X128200000Y-117793053D01*
X128200000Y-117250000D01*
X127450000Y-117250000D01*
X127150000Y-117250000D01*
X126400000Y-117250000D01*
X123600000Y-117250000D01*
X122850000Y-117250000D01*
X122550000Y-117250000D01*
X121800000Y-117250000D01*
X119154500Y-117250000D01*
X119154500Y-116950000D01*
X121800000Y-116950000D01*
X122550000Y-116950000D01*
X122550000Y-115900000D01*
X122850000Y-115900000D01*
X122850000Y-116950000D01*
X123600000Y-116950000D01*
X126400000Y-116950000D01*
X127150000Y-116950000D01*
X127150000Y-115900000D01*
X127450000Y-115900000D01*
X127450000Y-116950000D01*
X128200000Y-116950000D01*
X128200000Y-116406946D01*
X128189386Y-116318556D01*
X128133920Y-116177904D01*
X128042564Y-116057435D01*
X127922095Y-115966079D01*
X127781443Y-115910613D01*
X127693054Y-115900000D01*
X127450000Y-115900000D01*
X127150000Y-115900000D01*
X126906946Y-115900000D01*
X126818556Y-115910613D01*
X126677904Y-115966079D01*
X126557435Y-116057435D01*
X126466079Y-116177904D01*
X126410613Y-116318556D01*
X126400000Y-116406946D01*
X126400000Y-116950000D01*
X123600000Y-116950000D01*
X123600000Y-116406946D01*
X123589386Y-116318556D01*
X123533920Y-116177904D01*
X123442564Y-116057435D01*
X123322095Y-115966079D01*
X123181443Y-115910613D01*
X123093054Y-115900000D01*
X122850000Y-115900000D01*
X122550000Y-115900000D01*
X122306946Y-115900000D01*
X122218556Y-115910613D01*
X122077904Y-115966079D01*
X121957435Y-116057435D01*
X121866079Y-116177904D01*
X121810613Y-116318556D01*
X121800000Y-116406946D01*
X121800000Y-116950000D01*
X119154500Y-116950000D01*
X119154500Y-111547453D01*
X120879500Y-111547453D01*
X120882258Y-111576874D01*
X120882260Y-111576884D01*
X120925618Y-111700792D01*
X120925619Y-111700794D01*
X120950761Y-111734860D01*
X121003576Y-111806423D01*
X121055759Y-111844935D01*
X121109206Y-111884381D01*
X121137784Y-111894381D01*
X121233115Y-111927740D01*
X121233119Y-111927740D01*
X121233121Y-111927741D01*
X121252091Y-111929519D01*
X121316998Y-111955376D01*
X121328194Y-111965297D01*
X122379093Y-113016196D01*
X122379114Y-113016219D01*
X122423846Y-113060950D01*
X122427064Y-113064290D01*
X122465947Y-113106196D01*
X122473210Y-113111988D01*
X122472689Y-113112641D01*
X122484930Y-113122034D01*
X122883634Y-113520738D01*
X122892899Y-113531105D01*
X122915121Y-113558970D01*
X122962335Y-113591160D01*
X122966117Y-113593843D01*
X123012121Y-113627795D01*
X123019672Y-113631785D01*
X123027322Y-113635468D01*
X123027327Y-113635472D01*
X123081965Y-113652325D01*
X123086353Y-113653769D01*
X123140300Y-113672646D01*
X123148688Y-113674232D01*
X123157095Y-113675500D01*
X123157098Y-113675500D01*
X123214261Y-113675500D01*
X123218897Y-113675587D01*
X123224794Y-113675807D01*
X123276010Y-113677724D01*
X123276011Y-113677723D01*
X123280136Y-113677878D01*
X123346392Y-113700055D01*
X123390141Y-113754532D01*
X123399500Y-113801791D01*
X123399500Y-113904269D01*
X123402353Y-113934699D01*
X123402353Y-113934701D01*
X123447206Y-114062880D01*
X123447207Y-114062882D01*
X123527850Y-114172150D01*
X123637118Y-114252793D01*
X123679845Y-114267744D01*
X123765299Y-114297646D01*
X123795730Y-114300500D01*
X123795734Y-114300500D01*
X124204270Y-114300500D01*
X124234699Y-114297646D01*
X124234701Y-114297646D01*
X124298790Y-114275219D01*
X124362882Y-114252793D01*
X124426790Y-114205626D01*
X124492415Y-114181657D01*
X124560586Y-114196972D01*
X124574056Y-114205629D01*
X124637354Y-114252345D01*
X124637354Y-114252346D01*
X124765397Y-114297149D01*
X124795779Y-114299998D01*
X124795807Y-114299999D01*
X124849999Y-114299998D01*
X124850000Y-114299998D01*
X124850000Y-112150000D01*
X124849999Y-112149999D01*
X124795804Y-112150000D01*
X124765393Y-112152851D01*
X124637354Y-112197653D01*
X124574055Y-112244371D01*
X124508426Y-112268342D01*
X124440255Y-112253027D01*
X124426788Y-112244371D01*
X124362886Y-112197209D01*
X124362880Y-112197206D01*
X124234700Y-112152353D01*
X124204270Y-112149500D01*
X124204266Y-112149500D01*
X123795734Y-112149500D01*
X123795730Y-112149500D01*
X123765300Y-112152353D01*
X123765298Y-112152353D01*
X123637119Y-112197206D01*
X123637117Y-112197207D01*
X123527850Y-112277850D01*
X123447207Y-112387117D01*
X123441541Y-112403311D01*
X123400818Y-112460087D01*
X123335865Y-112485833D01*
X123267304Y-112472376D01*
X123216902Y-112423988D01*
X123200500Y-112362355D01*
X123200500Y-110808076D01*
X123220185Y-110741037D01*
X123272989Y-110695282D01*
X123277048Y-110693515D01*
X123315228Y-110677700D01*
X123315227Y-110677700D01*
X123315233Y-110677698D01*
X123398417Y-110613867D01*
X123463586Y-110588673D01*
X123532031Y-110602711D01*
X123582021Y-110651525D01*
X123597685Y-110719616D01*
X123597125Y-110726124D01*
X123594435Y-110750002D01*
X123594435Y-110750003D01*
X123614630Y-110929249D01*
X123614631Y-110929254D01*
X123674211Y-111099523D01*
X123726377Y-111182544D01*
X123770184Y-111252262D01*
X123897738Y-111379816D01*
X124050478Y-111475789D01*
X124220745Y-111535368D01*
X124220750Y-111535369D01*
X124399996Y-111555565D01*
X124400000Y-111555565D01*
X124400004Y-111555565D01*
X124579249Y-111535369D01*
X124579252Y-111535368D01*
X124579255Y-111535368D01*
X124749522Y-111475789D01*
X124902262Y-111379816D01*
X125029816Y-111252262D01*
X125125789Y-111099522D01*
X125185368Y-110929255D01*
X125186392Y-110920167D01*
X125205565Y-110750003D01*
X125205565Y-110750000D01*
X125205228Y-110747010D01*
X125205565Y-110745085D01*
X125205565Y-110743036D01*
X125205924Y-110743036D01*
X125217281Y-110678188D01*
X125264630Y-110626807D01*
X125332240Y-110609182D01*
X125398646Y-110630907D01*
X125403373Y-110634320D01*
X125467047Y-110682605D01*
X125471342Y-110685862D01*
X125608923Y-110740117D01*
X125666321Y-110747010D01*
X125695381Y-110750500D01*
X125695382Y-110750500D01*
X126404619Y-110750500D01*
X126433679Y-110747010D01*
X126491077Y-110740117D01*
X126628658Y-110685862D01*
X126628662Y-110685858D01*
X126634450Y-110682605D01*
X126702532Y-110666902D01*
X126768296Y-110690500D01*
X126795001Y-110717055D01*
X126846155Y-110786368D01*
X126870125Y-110851997D01*
X126854809Y-110920167D01*
X126846154Y-110933633D01*
X126775619Y-111029204D01*
X126775619Y-111029205D01*
X126732258Y-111153118D01*
X126732258Y-111153120D01*
X126729500Y-111182538D01*
X126729500Y-111302034D01*
X126709815Y-111369073D01*
X126693181Y-111389715D01*
X125969716Y-112113181D01*
X125908393Y-112146666D01*
X125882035Y-112149500D01*
X125795730Y-112149500D01*
X125765300Y-112152353D01*
X125765298Y-112152353D01*
X125637119Y-112197206D01*
X125637118Y-112197207D01*
X125573211Y-112244372D01*
X125507582Y-112268342D01*
X125439411Y-112253026D01*
X125425944Y-112244371D01*
X125362644Y-112197653D01*
X125362645Y-112197653D01*
X125234602Y-112152850D01*
X125204207Y-112150000D01*
X125150000Y-112150000D01*
X125150000Y-114299999D01*
X125204196Y-114299999D01*
X125234606Y-114297148D01*
X125362645Y-114252346D01*
X125362645Y-114252345D01*
X125425944Y-114205629D01*
X125491573Y-114181657D01*
X125559744Y-114196972D01*
X125573200Y-114205619D01*
X125637118Y-114252793D01*
X125679845Y-114267744D01*
X125765299Y-114297646D01*
X125795730Y-114300500D01*
X125795734Y-114300500D01*
X126204270Y-114300500D01*
X126234699Y-114297646D01*
X126234701Y-114297646D01*
X126298790Y-114275219D01*
X126362882Y-114252793D01*
X126472150Y-114172150D01*
X126552793Y-114062882D01*
X126575219Y-113998790D01*
X126597646Y-113934701D01*
X126597646Y-113934699D01*
X126600500Y-113904269D01*
X126600500Y-112807964D01*
X126620185Y-112740925D01*
X126636815Y-112720287D01*
X127380284Y-111976817D01*
X127441607Y-111943333D01*
X127467965Y-111940499D01*
X127587454Y-111940499D01*
X127587456Y-111940499D01*
X127616879Y-111937741D01*
X127740794Y-111894381D01*
X127796064Y-111853589D01*
X127861689Y-111829620D01*
X127929860Y-111844935D01*
X127943330Y-111853592D01*
X127984439Y-111883932D01*
X127984442Y-111883934D01*
X128108207Y-111927242D01*
X128108219Y-111927244D01*
X128137602Y-111930000D01*
X128225000Y-111930000D01*
X128225000Y-111510000D01*
X128525000Y-111510000D01*
X128525000Y-111930000D01*
X128612398Y-111930000D01*
X128641780Y-111927244D01*
X128641792Y-111927242D01*
X128765557Y-111883934D01*
X128765559Y-111883933D01*
X128871065Y-111806065D01*
X128948933Y-111700559D01*
X128948934Y-111700557D01*
X128992242Y-111576792D01*
X128992244Y-111576780D01*
X128995000Y-111547398D01*
X128995000Y-111510000D01*
X128525000Y-111510000D01*
X128225000Y-111510000D01*
X128225000Y-111334000D01*
X128244685Y-111266961D01*
X128297489Y-111221206D01*
X128349000Y-111210000D01*
X128995000Y-111210000D01*
X128995000Y-111172601D01*
X128992244Y-111143219D01*
X128992242Y-111143207D01*
X128948934Y-111019442D01*
X128948932Y-111019439D01*
X128878535Y-110924056D01*
X128854563Y-110858427D01*
X128869878Y-110790257D01*
X128878529Y-110776794D01*
X128949381Y-110680794D01*
X128976704Y-110602711D01*
X128992741Y-110556881D01*
X128992741Y-110556879D01*
X128992750Y-110556780D01*
X128995500Y-110527457D01*
X128995499Y-110152544D01*
X128992741Y-110123121D01*
X128949381Y-109999206D01*
X128908958Y-109944435D01*
X128871423Y-109893576D01*
X128779342Y-109825618D01*
X128765794Y-109815619D01*
X128765792Y-109815618D01*
X128641880Y-109772258D01*
X128612461Y-109769500D01*
X128137546Y-109769500D01*
X128108125Y-109772258D01*
X128108115Y-109772260D01*
X127984205Y-109815619D01*
X127984204Y-109815619D01*
X127929358Y-109856098D01*
X127863730Y-109880069D01*
X127795559Y-109864753D01*
X127782091Y-109856098D01*
X127740794Y-109825619D01*
X127740792Y-109825618D01*
X127616880Y-109782258D01*
X127587461Y-109779500D01*
X127587457Y-109779500D01*
X127467965Y-109779500D01*
X127400926Y-109759815D01*
X127380284Y-109743181D01*
X127316368Y-109679265D01*
X127307102Y-109668897D01*
X127284877Y-109641028D01*
X127259350Y-109623624D01*
X127237633Y-109608818D01*
X127233869Y-109606147D01*
X127187886Y-109572209D01*
X127180297Y-109568198D01*
X127172675Y-109564528D01*
X127118049Y-109547679D01*
X127113644Y-109546230D01*
X127059695Y-109527352D01*
X127051326Y-109525768D01*
X127042904Y-109524500D01*
X127042902Y-109524500D01*
X126985738Y-109524500D01*
X126981103Y-109524413D01*
X126977193Y-109524266D01*
X126931721Y-109522564D01*
X126865465Y-109500385D01*
X126837557Y-109473576D01*
X126746500Y-109353499D01*
X126628660Y-109264139D01*
X126628658Y-109264138D01*
X126491077Y-109209883D01*
X126491076Y-109209882D01*
X126491074Y-109209882D01*
X126404619Y-109199500D01*
X126404618Y-109199500D01*
X125695382Y-109199500D01*
X125695381Y-109199500D01*
X125608925Y-109209882D01*
X125608924Y-109209882D01*
X125471339Y-109264139D01*
X125353499Y-109353499D01*
X125264139Y-109471339D01*
X125209882Y-109608924D01*
X125209882Y-109608925D01*
X125199500Y-109695381D01*
X125199500Y-110118060D01*
X125179815Y-110185099D01*
X125127011Y-110230854D01*
X125057853Y-110240798D01*
X124994297Y-110211773D01*
X124987819Y-110205741D01*
X124902262Y-110120184D01*
X124749523Y-110024211D01*
X124579254Y-109964631D01*
X124579249Y-109964630D01*
X124400004Y-109944435D01*
X124399996Y-109944435D01*
X124220750Y-109964630D01*
X124220745Y-109964631D01*
X124050476Y-110024211D01*
X123897737Y-110120184D01*
X123812181Y-110205741D01*
X123750858Y-110239226D01*
X123681166Y-110234242D01*
X123625233Y-110192370D01*
X123600816Y-110126906D01*
X123600500Y-110118060D01*
X123600500Y-109587286D01*
X123600499Y-109587272D01*
X123597988Y-109568198D01*
X123585687Y-109474764D01*
X123527698Y-109334767D01*
X123435451Y-109214549D01*
X123315233Y-109122302D01*
X123315229Y-109122300D01*
X123251801Y-109096027D01*
X123175236Y-109064313D01*
X123161171Y-109062461D01*
X123062727Y-109049500D01*
X123062720Y-109049500D01*
X122437280Y-109049500D01*
X122437272Y-109049500D01*
X122324764Y-109064313D01*
X122324763Y-109064313D01*
X122184770Y-109122300D01*
X122064549Y-109214549D01*
X121972300Y-109334770D01*
X121914313Y-109474763D01*
X121914313Y-109474764D01*
X121899500Y-109587272D01*
X121899500Y-109649029D01*
X121879815Y-109716068D01*
X121827011Y-109761823D01*
X121763925Y-109772488D01*
X121737389Y-109770000D01*
X121650000Y-109770000D01*
X121650000Y-110366000D01*
X121630315Y-110433039D01*
X121577511Y-110478794D01*
X121526000Y-110490000D01*
X120880000Y-110490000D01*
X120880000Y-110527398D01*
X120882755Y-110556780D01*
X120882757Y-110556792D01*
X120926065Y-110680557D01*
X120926066Y-110680559D01*
X120996465Y-110775945D01*
X121020436Y-110841574D01*
X121005121Y-110909744D01*
X120996465Y-110923212D01*
X120925619Y-111019204D01*
X120925619Y-111019205D01*
X120882258Y-111143118D01*
X120882258Y-111143120D01*
X120879500Y-111172538D01*
X120879500Y-111547453D01*
X119154500Y-111547453D01*
X119154500Y-110190000D01*
X120880000Y-110190000D01*
X121350000Y-110190000D01*
X121350000Y-109770000D01*
X121262602Y-109770000D01*
X121233219Y-109772755D01*
X121233207Y-109772757D01*
X121109442Y-109816065D01*
X121109440Y-109816066D01*
X121003934Y-109893934D01*
X120926066Y-109999440D01*
X120926065Y-109999442D01*
X120882757Y-110123207D01*
X120882755Y-110123219D01*
X120880000Y-110152601D01*
X120880000Y-110190000D01*
X119154500Y-110190000D01*
X119154500Y-107878500D01*
X119174185Y-107811461D01*
X119226989Y-107765706D01*
X119278500Y-107754500D01*
X124091454Y-107754500D01*
X124158493Y-107774185D01*
G37*
%TD.AperFunction*%
%TD*%
M02*
