%TF.GenerationSoftware,KiCad,Pcbnew,7.0.10*%
%TF.CreationDate,2024-04-20T21:53:22+01:00*%
%TF.ProjectId,Nano_switch_circuitry,4e616e6f-5f73-4776-9974-63685f636972,rev?*%
%TF.SameCoordinates,Original*%
%TF.FileFunction,Legend,Bot*%
%TF.FilePolarity,Positive*%
%FSLAX46Y46*%
G04 Gerber Fmt 4.6, Leading zero omitted, Abs format (unit mm)*
G04 Created by KiCad (PCBNEW 7.0.10) date 2024-04-20 21:53:22*
%MOMM*%
%LPD*%
G01*
G04 APERTURE LIST*
%ADD10C,0.100000*%
G04 APERTURE END LIST*
D10*
X129143734Y-115663561D02*
X129143734Y-116196895D01*
X129143734Y-115739752D02*
X129105639Y-115701657D01*
X129105639Y-115701657D02*
X129029449Y-115663561D01*
X129029449Y-115663561D02*
X128915163Y-115663561D01*
X128915163Y-115663561D02*
X128838972Y-115701657D01*
X128838972Y-115701657D02*
X128800877Y-115777847D01*
X128800877Y-115777847D02*
X128800877Y-116196895D01*
X128610401Y-116273085D02*
X128000877Y-116273085D01*
X127848496Y-116158800D02*
X127734210Y-116196895D01*
X127734210Y-116196895D02*
X127543734Y-116196895D01*
X127543734Y-116196895D02*
X127467543Y-116158800D01*
X127467543Y-116158800D02*
X127429448Y-116120704D01*
X127429448Y-116120704D02*
X127391353Y-116044514D01*
X127391353Y-116044514D02*
X127391353Y-115968323D01*
X127391353Y-115968323D02*
X127429448Y-115892133D01*
X127429448Y-115892133D02*
X127467543Y-115854038D01*
X127467543Y-115854038D02*
X127543734Y-115815942D01*
X127543734Y-115815942D02*
X127696115Y-115777847D01*
X127696115Y-115777847D02*
X127772305Y-115739752D01*
X127772305Y-115739752D02*
X127810400Y-115701657D01*
X127810400Y-115701657D02*
X127848496Y-115625466D01*
X127848496Y-115625466D02*
X127848496Y-115549276D01*
X127848496Y-115549276D02*
X127810400Y-115473085D01*
X127810400Y-115473085D02*
X127772305Y-115434990D01*
X127772305Y-115434990D02*
X127696115Y-115396895D01*
X127696115Y-115396895D02*
X127505638Y-115396895D01*
X127505638Y-115396895D02*
X127391353Y-115434990D01*
X127124686Y-115396895D02*
X126934210Y-116196895D01*
X126934210Y-116196895D02*
X126781829Y-115625466D01*
X126781829Y-115625466D02*
X126629448Y-116196895D01*
X126629448Y-116196895D02*
X126438972Y-115396895D01*
X126324686Y-116273085D02*
X125715162Y-116273085D01*
X125105638Y-115434990D02*
X125181828Y-115396895D01*
X125181828Y-115396895D02*
X125296114Y-115396895D01*
X125296114Y-115396895D02*
X125410400Y-115434990D01*
X125410400Y-115434990D02*
X125486590Y-115511180D01*
X125486590Y-115511180D02*
X125524685Y-115587371D01*
X125524685Y-115587371D02*
X125562781Y-115739752D01*
X125562781Y-115739752D02*
X125562781Y-115854038D01*
X125562781Y-115854038D02*
X125524685Y-116006419D01*
X125524685Y-116006419D02*
X125486590Y-116082609D01*
X125486590Y-116082609D02*
X125410400Y-116158800D01*
X125410400Y-116158800D02*
X125296114Y-116196895D01*
X125296114Y-116196895D02*
X125219923Y-116196895D01*
X125219923Y-116196895D02*
X125105638Y-116158800D01*
X125105638Y-116158800D02*
X125067542Y-116120704D01*
X125067542Y-116120704D02*
X125067542Y-115854038D01*
X125067542Y-115854038D02*
X125219923Y-115854038D01*
X124724685Y-116196895D02*
X124724685Y-115396895D01*
X124724685Y-115396895D02*
X124458019Y-115968323D01*
X124458019Y-115968323D02*
X124191352Y-115396895D01*
X124191352Y-115396895D02*
X124191352Y-116196895D01*
X124000876Y-116273085D02*
X123391352Y-116273085D01*
X123315161Y-115396895D02*
X123048494Y-116196895D01*
X123048494Y-116196895D02*
X122781828Y-115396895D01*
X122096114Y-116196895D02*
X122553257Y-116196895D01*
X122324685Y-116196895D02*
X122324685Y-115396895D01*
X122324685Y-115396895D02*
X122400876Y-115511180D01*
X122400876Y-115511180D02*
X122477066Y-115587371D01*
X122477066Y-115587371D02*
X122553257Y-115625466D01*
X121753256Y-116120704D02*
X121715161Y-116158800D01*
X121715161Y-116158800D02*
X121753256Y-116196895D01*
X121753256Y-116196895D02*
X121791352Y-116158800D01*
X121791352Y-116158800D02*
X121753256Y-116120704D01*
X121753256Y-116120704D02*
X121753256Y-116196895D01*
X121219923Y-115396895D02*
X121143733Y-115396895D01*
X121143733Y-115396895D02*
X121067542Y-115434990D01*
X121067542Y-115434990D02*
X121029447Y-115473085D01*
X121029447Y-115473085D02*
X120991352Y-115549276D01*
X120991352Y-115549276D02*
X120953257Y-115701657D01*
X120953257Y-115701657D02*
X120953257Y-115892133D01*
X120953257Y-115892133D02*
X120991352Y-116044514D01*
X120991352Y-116044514D02*
X121029447Y-116120704D01*
X121029447Y-116120704D02*
X121067542Y-116158800D01*
X121067542Y-116158800D02*
X121143733Y-116196895D01*
X121143733Y-116196895D02*
X121219923Y-116196895D01*
X121219923Y-116196895D02*
X121296114Y-116158800D01*
X121296114Y-116158800D02*
X121334209Y-116120704D01*
X121334209Y-116120704D02*
X121372304Y-116044514D01*
X121372304Y-116044514D02*
X121410400Y-115892133D01*
X121410400Y-115892133D02*
X121410400Y-115701657D01*
X121410400Y-115701657D02*
X121372304Y-115549276D01*
X121372304Y-115549276D02*
X121334209Y-115473085D01*
X121334209Y-115473085D02*
X121296114Y-115434990D01*
X121296114Y-115434990D02*
X121219923Y-115396895D01*
M02*
