%TF.GenerationSoftware,KiCad,Pcbnew,7.0.10*%
%TF.CreationDate,2024-04-20T21:53:22+01:00*%
%TF.ProjectId,Nano_switch_circuitry,4e616e6f-5f73-4776-9974-63685f636972,rev?*%
%TF.SameCoordinates,Original*%
%TF.FileFunction,Copper,L2,Bot*%
%TF.FilePolarity,Positive*%
%FSLAX46Y46*%
G04 Gerber Fmt 4.6, Leading zero omitted, Abs format (unit mm)*
G04 Created by KiCad (PCBNEW 7.0.10) date 2024-04-20 21:53:22*
%MOMM*%
%LPD*%
G01*
G04 APERTURE LIST*
%TA.AperFunction,WasherPad*%
%ADD10C,1.000000*%
%TD*%
%TA.AperFunction,ViaPad*%
%ADD11C,0.600000*%
%TD*%
%TA.AperFunction,ViaPad*%
%ADD12C,3.000000*%
%TD*%
G04 APERTURE END LIST*
D10*
%TO.P,SW1,*%
%TO.N,*%
X124400000Y-108750000D03*
X124400000Y-110750000D03*
%TD*%
D11*
%TO.N,GND*%
X125000000Y-115000000D03*
X120500000Y-110000000D03*
X120500000Y-108500000D03*
X120500000Y-117500000D03*
X129500000Y-117500000D03*
X129500000Y-108500000D03*
X123650000Y-111875000D03*
D12*
X129250000Y-113500000D03*
X120750000Y-113500000D03*
D11*
X127625000Y-109125000D03*
X127225000Y-112500000D03*
X127225000Y-114500000D03*
X125000000Y-117000000D03*
X122725000Y-114500000D03*
X125875000Y-111375000D03*
X122625000Y-108375000D03*
X126125000Y-108375000D03*
%TD*%
%TA.AperFunction,Conductor*%
%TO.N,GND*%
G36*
X123756405Y-107774185D02*
G01*
X123802160Y-107826989D01*
X123812104Y-107896147D01*
X123783079Y-107959703D01*
X123768031Y-107974353D01*
X123689116Y-108039116D01*
X123564090Y-108191460D01*
X123564086Y-108191467D01*
X123471188Y-108365266D01*
X123413975Y-108553870D01*
X123394659Y-108750000D01*
X123413975Y-108946129D01*
X123471188Y-109134733D01*
X123564086Y-109308532D01*
X123564090Y-109308539D01*
X123689116Y-109460883D01*
X123841460Y-109585909D01*
X123841467Y-109585914D01*
X123943856Y-109640642D01*
X123993701Y-109689604D01*
X124009161Y-109757742D01*
X123985329Y-109823422D01*
X123943856Y-109859358D01*
X123841467Y-109914085D01*
X123841460Y-109914090D01*
X123689116Y-110039116D01*
X123564090Y-110191460D01*
X123564086Y-110191467D01*
X123471188Y-110365266D01*
X123413975Y-110553870D01*
X123394659Y-110750000D01*
X123413975Y-110946129D01*
X123471188Y-111134733D01*
X123564086Y-111308532D01*
X123564090Y-111308539D01*
X123689116Y-111460883D01*
X123841460Y-111585909D01*
X123841467Y-111585913D01*
X124015266Y-111678811D01*
X124015269Y-111678811D01*
X124015273Y-111678814D01*
X124203868Y-111736024D01*
X124400000Y-111755341D01*
X124596132Y-111736024D01*
X124784727Y-111678814D01*
X124958538Y-111585910D01*
X125110883Y-111460883D01*
X125235910Y-111308538D01*
X125328814Y-111134727D01*
X125386024Y-110946132D01*
X125405341Y-110750000D01*
X125386024Y-110553868D01*
X125328814Y-110365273D01*
X125328811Y-110365269D01*
X125328811Y-110365266D01*
X125235913Y-110191467D01*
X125235909Y-110191460D01*
X125110883Y-110039116D01*
X124958539Y-109914090D01*
X124958532Y-109914086D01*
X124856143Y-109859358D01*
X124806299Y-109810396D01*
X124790838Y-109742258D01*
X124814670Y-109676579D01*
X124856143Y-109640642D01*
X124934690Y-109598657D01*
X124958538Y-109585910D01*
X125110883Y-109460883D01*
X125235910Y-109308538D01*
X125328814Y-109134727D01*
X125386024Y-108946132D01*
X125405341Y-108750000D01*
X125386024Y-108553868D01*
X125328814Y-108365273D01*
X125328811Y-108365269D01*
X125328811Y-108365266D01*
X125235913Y-108191467D01*
X125235909Y-108191460D01*
X125110883Y-108039116D01*
X125031969Y-107974353D01*
X124992635Y-107916607D01*
X124990764Y-107846763D01*
X125026952Y-107786994D01*
X125089708Y-107756279D01*
X125110634Y-107754500D01*
X130721500Y-107754500D01*
X130788539Y-107774185D01*
X130834294Y-107826989D01*
X130845500Y-107878500D01*
X130845500Y-118621500D01*
X130825815Y-118688539D01*
X130773011Y-118734294D01*
X130721500Y-118745500D01*
X119278500Y-118745500D01*
X119211461Y-118725815D01*
X119165706Y-118673011D01*
X119154500Y-118621500D01*
X119154500Y-107878500D01*
X119174185Y-107811461D01*
X119226989Y-107765706D01*
X119278500Y-107754500D01*
X123689366Y-107754500D01*
X123756405Y-107774185D01*
G37*
%TD.AperFunction*%
%TD*%
M02*
